<svg height="512pt" viewBox="0 -131 512.00026 512" width="512pt" xmlns="http://www.w3.org/2000/svg"><path d="m509.769531 115.890625c-92.234375-98.390625-196.074219-134.390625-308.625-107.007813-88.34375 21.496094-157.425781 76.5625-190.742187 107.472657-12.476563 11.578125-13.90625 30.238281-3.332032 43.410156 9.992188 12.4375 27.992188 16.449219 42.753907 9.546875l10.78125-5.035156c65.5 57.421875 133.546875 86.453125 202.558593 86.453125 4.566407 0 9.152344-.125 13.726563-.382813 112.5625-6.269531 185.78125-86.90625 188.84375-90.335937 3.035156-3.398438 2.734375-8.609375-.660156-11.644531-3.382813-3.019532-8.617188-2.742188-11.644531.660156-.703126.789062-71.660157 78.957031-177.453126 84.851562-70.546874 3.914063-140.75-24.835937-208.449218-85.5-2.449219-2.210937-6.007813-2.726562-8.988282-1.332031l-15.6875 7.320313c-7.980468 3.710937-17.628906 1.660156-22.925781-4.925782-5.171875-6.449218-4.460937-15.277344 1.707031-20.996094 59.882813-55.566406 271.203126-219.859374 476.109376-1.273437 3.109374 3.328125 8.339843 3.496094 11.652343.375 3.320313-3.113281 3.492188-8.332031.375-11.65625zm0 0"/><path d="m446.324219 133.898438c2.078125 0 4.164062-.78125 5.765625-2.351563 3.253906-3.183594 3.3125-8.402344.128906-11.660156-45.042969-46.050781-90.726562-70.246094-134.222656-80.414063-40.734375-11.238281-83.175782-9.359375-126.734375 5.574219-76.691407 23.277344-129.566407 73.703125-130.582031 74.699219-3.265626 3.183594-3.328126 8.394531-.144532 11.65625 3.195313 3.277344 8.414063 3.320312 11.660156.15625.398438-.394532 34.328126-32.953125 86.160157-56.855469-3.738281 11.082031-5.871094 22.699219-5.871094 34.457031 0 59.542969 48.449219 107.988282 107.996094 107.988282s107.992187-48.445313 107.992187-107.988282c0-12.433594-2.21875-24.753906-6.429687-36.425781 27.179687 13.621094 53.355469 33.09375 78.386719 58.683594 1.617187 1.652343 3.753906 2.480469 5.894531 2.480469zm-185.84375 65.1875c-49.582031 0-89.921875-40.34375-89.921875-89.925782 0-14.101562 3.34375-28.074218 9.695312-40.609375 18.730469-7.914062 37.222656-13.183593 55.445313-15.9375-9.777344 4.316407-18.265625 11-24.617188 19.441407 11.347657.046874 20.535157 9.25 20.535157 20.609374 0 11.386719-9.230469 20.617188-20.617188 20.617188-4.660156 0-8.910156-1.605469-12.363281-4.210938 0 .027344-.003907.058594-.003907.085938 0 34.160156 27.6875 61.847656 61.847657 61.847656 34.15625 0 61.847656-27.6875 61.847656-61.847656 0-26.667969-16.910156-49.324219-40.566406-58.007812 19.632812 1.835937 38.855469 6.839843 57.609375 15.023437 7.222656 13.21875 11.03125 28.019531 11.03125 42.984375 0 49.585938-40.335938 89.929688-89.921875 89.929688zm0 0"/></svg>