<svg id="Capa_1" enable-background="new 0 0 512 512" height="512" viewBox="0 0 512 512" width="512" xmlns="http://www.w3.org/2000/svg"><g><g><path d="m250 132.5c4.142 0 7.5-3.358 7.5-7.5s-3.358-7.5-7.5-7.5h-98.971c-4.142 0-7.5 3.358-7.5 7.5s3.358 7.5 7.5 7.5z"/><path d="m109.529 176c0 4.142 3.358 7.5 7.5 7.5h166.971c4.143 0 7.5-3.358 7.5-7.5s-3.357-7.5-7.5-7.5h-166.971c-4.142 0-7.5 3.358-7.5 7.5z"/><path d="m117.029 218.5h166.971c4.143 0 7.5-3.358 7.5-7.5s-3.357-7.5-7.5-7.5h-166.971c-4.142 0-7.5 3.358-7.5 7.5s3.358 7.5 7.5 7.5z"/><path d="m117.029 288.5h56.971c4.142 0 7.5-3.358 7.5-7.5s-3.358-7.5-7.5-7.5h-56.971c-4.142 0-7.5 3.358-7.5 7.5s3.358 7.5 7.5 7.5z"/><path d="m454.488 334.482c4.143 0 7.5-3.358 7.5-7.5v-33.704c0-4.609-2.34-8.811-6.259-11.239l-36.07-22.341v-249.198c0-5.79-4.71-10.5-10.5-10.5h-280.006c-5.79 0-10.5 4.71-10.5 10.5v23.821h-23.821c-5.79 0-10.5 4.71-10.5 10.5v23.821h-23.82c-5.79 0-10.5 4.71-10.5 10.5v382.968c0 5.79 4.71 10.5 10.5 10.5h55.488c4.142 0 7.5-3.358 7.5-7.5s-3.358-7.5-7.5-7.5h-50.988v-373.968h271.006v137.971l-45.59 28.237c.676-1.126 1.072-2.44 1.072-3.85 0-4.142-3.357-7.5-7.5-7.5h-166.971c-4.142 0-7.5 3.358-7.5 7.5s3.358 7.5 7.5 7.5h166.971c.197 0 .389-.015.582-.029l-32.338 20.029h-54.244c-4.142 0-7.5 3.358-7.5 7.5s3.358 7.5 7.5 7.5h35.091c-.578 1.497-.893 3.109-.893 4.779v15.221h-115.169c-4.142 0-7.5 3.358-7.5 7.5s3.358 7.5 7.5 7.5h115.168v20h-115.168c-4.142 0-7.5 3.358-7.5 7.5s3.358 7.5 7.5 7.5h115.168v17.68c0 .775.012 1.548.032 2.32h-115.2c-4.142 0-7.5 3.358-7.5 7.5s3.358 7.5 7.5 7.5h116.825c3.884 20.107 14.471 38.462 30.34 51.985l14.228 12.125h-127.422c-4.142 0-7.5 3.358-7.5 7.5s3.358 7.5 7.5 7.5h145.024l42.495 36.214c2.483 2.117 5.529 3.175 8.574 3.175s6.091-1.059 8.574-3.175l74.325-63.34c20.334-17.328 31.996-42.589 31.996-69.305v-14.197c0-4.142-3.357-7.5-7.5-7.5s-7.5 3.358-7.5 7.5v14.197c0 22.315-9.741 43.415-26.725 57.888l-73.171 62.356-73.17-62.356c-16.984-14.473-26.725-35.573-26.725-57.888v-81.91l99.895-61.873 99.896 61.873v32.712c0 4.144 3.358 7.501 7.5 7.501zm-103.47-116.802v-138.538c0-5.79-4.71-10.5-10.5-10.5h-241.186v-19.321h271.007v52.679c0 4.142 3.357 7.5 7.5 7.5s7.5-3.358 7.5-7.5v-57.179c0-5.79-4.71-10.5-10.5-10.5h-241.186v-19.321h271.006v235.408l-19.32-11.967v-101.441c0-4.142-3.357-7.5-7.5-7.5s-7.5 3.358-7.5 7.5v92.151l-16.286-10.087c-.967-.599-1.987-1.055-3.035-1.384z"/><path d="m278.394 350.73c0 37.881 30.818 68.7 68.699 68.7 37.882 0 68.7-30.818 68.7-68.7s-30.818-68.7-68.7-68.7c-37.881 0-68.699 30.819-68.699 68.7zm122.399 0c0 29.61-24.09 53.7-53.7 53.7-29.609 0-53.699-24.089-53.699-53.7s24.09-53.7 53.699-53.7c29.61 0 53.7 24.09 53.7 53.7z"/><path d="m331.69 343.329c-2.928-2.929-7.677-2.929-10.606 0s-2.929 7.678 0 10.606l18.098 18.097c1.465 1.464 3.385 2.197 5.304 2.197s3.839-.732 5.304-2.197l28.051-28.051c2.929-2.929 2.929-7.678 0-10.606-2.93-2.929-7.678-2.929-10.607 0l-22.747 22.748z"/></g></g></svg>